<svg xmlns="http://www.w3.org/2000/svg" width="16" height="16" viewBox="0 0 16 16"><defs><style>.a{fill:#6f6f6f;}.b{fill:#fff;}</style></defs><g transform="translate(-618 -499)"><circle class="a" cx="8" cy="8" r="8" transform="translate(634 499) rotate(90)"/><path class="b" d="M131,458.917V458.5a2.5,2.5,0,0,0-5,0v5a2.5,2.5,0,0,0,5,0v-2.291a1.458,1.458,0,0,0-2.917,0v2.709h.833v-2.708a.625.625,0,1,1,1.25,0V463.5a1.667,1.667,0,1,1-3.333,0v-5a1.667,1.667,0,0,1,3.333,0v.417Z" transform="translate(755 968) rotate(180)"/></g></svg>