<svg height='100px' width='100px'  fill="#000000" xmlns="http://www.w3.org/2000/svg" data-name="Layer 1" viewBox="0 0 64 64" x="0px" y="0px"><title>attracting-attraction-love-charm-influence</title><path d="M13,9H11.62048a4.00006,4.00006,0,1,0-5.241,0H5a3,3,0,0,0-3,3v6l2,1V29H14V19l2-1V12A3,3,0,0,0,13,9ZM7,13V11h4v2H10v4H8V13Zm5,14H10V25h2Z"></path><path d="M13,42H11.62048a4.00006,4.00006,0,1,0-5.241,0H5a3,3,0,0,0-3,3v6l2,1V62H14V52l2-1V45A3,3,0,0,0,13,42ZM7,46V44h4v2H10v4H8V46Zm5,14H10V58h2Z"></path><path d="M59,9H57.62048a4.00006,4.00006,0,1,0-5.241,0H51a3,3,0,0,0-3,3v6l2,1V29H60V19l2-1V12A3,3,0,0,0,59,9Zm-6,4V11h4v2H56v4H54V13Zm5,14H56V25h2Z"></path><path d="M59,42H57.62048a4.00006,4.00006,0,1,0-5.241,0H51a3,3,0,0,0-3,3v6l2,1V62H60V52l2-1V45A3,3,0,0,0,59,42Zm-6,4V44h4v2H56v4H54V46Zm5,14H56V58h2Z"></path><rect x="20" y="12" width="2" height="2"></rect><rect x="24" y="12" width="2" height="2"></rect><rect x="28" y="12" width="2" height="2"></rect><rect x="20" y="53" width="2" height="2"></rect><rect x="24" y="53" width="2" height="2"></rect><rect x="28" y="53" width="2" height="2"></rect><rect x="42" y="53" width="2" height="2"></rect><rect x="38" y="53" width="2" height="2"></rect><rect x="34" y="53" width="2" height="2"></rect><rect x="42" y="12" width="2" height="2"></rect><rect x="38" y="12" width="2" height="2"></rect><rect x="34" y="12" width="2" height="2"></rect><path d="M40.57471,25.51721a4.66061,4.66061,0,0,0-6.882,0l-1.72052,1.83142-1.72045-1.83142a4.66061,4.66061,0,0,0-6.882,0,5.42056,5.42056,0,0,0,.11358,7.32569L31.97223,42l8.60248-9.1571A5.4192,5.4192,0,0,0,40.57471,25.51721Z"></path><path d="M32,22a.99676.99676,0,0,1-.707-.293l-4-4L28.707,16.293,32,19.58594l3.293-3.293L36.707,17.707l-4,4A.99676.99676,0,0,1,32,22Z"></path><path d="M35.293,50.707,32,47.41406l-3.293,3.293L27.293,49.293l4-4a.99962.99962,0,0,1,1.41406,0l4,4Z"></path></svg>