<svg xmlns="http://www.w3.org/2000/svg" width="58.614" height="58.612" viewBox="0 0 58.614 58.612"><defs><style>.a{fill:#5a5a5a;opacity:0.701;}.b{fill:#8b8b8b;}</style></defs><g transform="translate(-302.315 -347.06)"><path class="a" d="M288.344,73.506,282.306,68V51.216a.839.839,0,0,0-.888-.888h-5.861a.839.839,0,0,0-.888.888v9.768l-8.259-7.548a.931.931,0,0,0-1.154,0l-11.19,10.212a6.9,6.9,0,0,0-5.861-3.641H236.838c-3.73,0-6.838,3.463-6.838,7.637V86.56a.839.839,0,0,0,.888.888h4.085V99.437a3.146,3.146,0,0,0,3.108,3.108H283.9a.839.839,0,0,0,.888-.888V75.016h2.93a.9.9,0,0,0,.8-.533A.785.785,0,0,0,288.344,73.506Zm-11.9-21.4h4.085V66.313l-4.085-3.73Zm-39.7,47.332V75.992a.888.888,0,0,0-1.777,0v9.68h-3.2V67.645c0-3.2,2.308-5.772,5.062-5.772H248.2a5.219,5.219,0,0,1,4.707,3.552,5.984,5.984,0,0,1,.355,2.131V85.672h-3.2v-9.68a.888.888,0,0,0-1.776,0V99.437a1.365,1.365,0,0,1-1.332,1.332H243.41V87.182a.888.888,0,0,0-1.776,0v13.587h-3.552A1.365,1.365,0,0,1,236.749,99.437Zm23.444,1.332V83.452h11.19v17.316Zm22.823,0h-9.769v-18.2a.839.839,0,0,0-.888-.888H259.305a.839.839,0,0,0-.888.888v18.2H249.8a2.96,2.96,0,0,0,.267-1.332V87.448h4.085a.839.839,0,0,0,.888-.888V75.016h27.884v25.753ZM283.9,73.24H255.132V67.645a8.935,8.935,0,0,0-.267-2.22L265.877,55.3c13.5,12.344,19.536,17.938,19.536,17.938Z" transform="translate(72.316 303.127)"/><path class="b" d="M265.818,61.4a4.973,4.973,0,1,0,4.974,4.973A5.145,5.145,0,0,0,265.818,61.4Zm0,8.259a3.2,3.2,0,1,1,3.2-3.2A3.241,3.241,0,0,1,265.818,69.659Z" transform="translate(72.64 303.243)"/><path class="a" d="M242.379,58.653a7.326,7.326,0,1,0-7.282-7.371A7.314,7.314,0,0,0,242.379,58.653Zm0-12.877a5.506,5.506,0,1,1-5.505,5.506A5.534,5.534,0,0,1,242.379,45.776Z" transform="translate(72.369 303.06)"/><path class="b" d="M275.442,78.907h4.618a.888.888,0,1,0,0-1.776h-4.618a.838.838,0,0,0-.887.888A.889.889,0,0,0,275.442,78.907Z" transform="translate(72.785 303.409)"/><path class="b" d="M275.442,83.651h4.618a.888.888,0,1,0,0-1.776h-4.618a.839.839,0,0,0-.887.888A.889.889,0,0,0,275.442,83.651Z" transform="translate(72.785 303.459)"/><path class="b" d="M275.442,88.4h4.618a.888.888,0,1,0,0-1.776h-4.618a.839.839,0,0,0-.887.888A.889.889,0,0,0,275.442,88.4Z" transform="translate(72.785 303.509)"/><path class="b" d="M275.442,93.143h4.618a.888.888,0,1,0,0-1.776h-4.618a.839.839,0,0,0-.887.888A.889.889,0,0,0,275.442,93.143Z" transform="translate(72.785 303.559)"/><path class="b" d="M275.442,97.8h4.618a.888.888,0,1,0,0-1.776h-4.618a.839.839,0,0,0-.887.888A.889.889,0,0,0,275.442,97.8Z" transform="translate(72.785 303.608)"/></g></svg>