<svg xmlns="http://www.w3.org/2000/svg" width="13.244" height="16.409" viewBox="0 0 13.244 16.409"><defs><style>.a{fill:#034d7b;}.b,.c{stroke:none;}.c{fill:#fff;}</style></defs><g class="a" transform="translate(-29.016 -24)"><path class="b" d="M 39.42437362670898 40.35916900634766 L 31.85092353820801 40.35916900634766 C 30.64031219482422 40.35916900634766 29.69199371337891 39.41085815429688 29.69199371337891 38.20024871826172 L 29.69199371337891 27.15560913085938 L 29.69199371337891 27.1056079864502 L 29.64199256896973 27.1056079864502 C 29.24617385864258 27.1056079864502 29.06588363647461 26.80413818359375 29.06588363647461 26.52403831481934 C 29.06588363647461 26.2443675994873 29.24617385864258 25.94335746765137 29.64199256896973 25.94335746765137 L 32.4820442199707 25.94335746765137 L 32.53204345703125 25.94335746765137 L 32.53204345703125 25.89335823059082 L 32.53204345703125 25.26223754882812 C 32.53204345703125 24.59380912780762 33.07585144042969 24.04999923706055 33.74428176879883 24.04999923706055 L 37.53100204467773 24.04999923706055 C 38.19944381713867 24.04999923706055 38.74326324462891 24.59380912780762 38.74326324462891 25.26223754882812 L 38.74326324462891 25.89335823059082 L 38.74326324462891 25.94335746765137 L 38.79326248168945 25.94335746765137 L 41.63330459594727 25.94335746765137 C 42.0290412902832 25.94335746765137 42.20929336547852 26.24468803405762 42.20929336547852 26.524658203125 C 42.20929336547852 26.80445861816406 42.0290412902832 27.1056079864502 41.63330459594727 27.1056079864502 L 41.58330154418945 27.1056079864502 L 41.58330154418945 27.15560913085938 L 41.58330154418945 38.20024871826172 C 41.58330154418945 39.41085815429688 40.63498306274414 40.35916900634766 39.42437362670898 40.35916900634766 Z M 30.85423278808594 27.1056079864502 L 30.85423278808594 27.15560913085938 L 30.85423278808594 38.20024871826172 C 30.85423278808594 38.76844787597656 31.28271293640137 39.19692993164062 31.85092353820801 39.19692993164062 L 39.42437362670898 39.19692993164062 C 39.99257278442383 39.19692993164062 40.42105102539062 38.76844787597656 40.42105102539062 38.20024871826172 L 40.42105102539062 27.15560913085938 L 40.42105102539062 27.1056079864502 L 40.37105178833008 27.1056079864502 L 30.90423202514648 27.1056079864502 L 30.85423278808594 27.1056079864502 Z M 33.69428253173828 25.21223831176758 L 33.69428253173828 25.26223754882812 L 33.69428253173828 25.89335823059082 L 33.69428253173828 25.94335746765137 L 33.74428176879883 25.94335746765137 L 37.53100204467773 25.94335746765137 L 37.58100128173828 25.94335746765137 L 37.58100128173828 25.89335823059082 L 37.58100128173828 25.26223754882812 L 37.58100128173828 25.21223831176758 L 37.53100204467773 25.21223831176758 L 33.74428176879883 25.21223831176758 L 33.69428253173828 25.21223831176758 Z M 38.74326324462891 37.20355987548828 L 37.58100128173828 37.20355987548828 L 37.58100128173828 29.09896850585938 L 38.74326324462891 29.09896850585938 L 38.74326324462891 37.20355987548828 Z M 36.21877288818359 37.20355987548828 L 35.05652236938477 37.20355987548828 L 35.05652236938477 29.09896850585938 L 36.21877288818359 29.09896850585938 L 36.21877288818359 37.20355987548828 Z M 33.69428253173828 37.20355987548828 L 32.53204345703125 37.20355987548828 L 32.53204345703125 29.09896850585938 L 33.69428253173828 29.09896850585938 L 33.69428253173828 37.20355987548828 Z"/><path class="c" d="M 33.74428176879883 24.0999870300293 C 33.10342407226562 24.0999870300293 32.5820426940918 24.62136840820312 32.5820426940918 25.26223754882812 L 32.5820426940918 25.89336013793945 L 32.5820426940918 25.99335861206055 L 32.4820442199707 25.99335861206055 L 29.64200210571289 25.99335861206055 C 29.28052139282227 25.99335861206055 29.11588287353516 26.26844787597656 29.11588287353516 26.52402877807617 C 29.11588287353516 26.78004837036133 29.28052139282227 27.05559921264648 29.64200210571289 27.05559921264648 L 29.74200439453125 27.05559921264648 L 29.74200439453125 27.15559768676758 L 29.74200439453125 38.20024871826172 C 29.74200439453125 39.38282012939453 30.66834259033203 40.30916595458984 31.85091400146484 40.30916595458984 L 39.42437362670898 40.30916595458984 C 40.60695266723633 40.30916595458984 41.53330230712891 39.38282012939453 41.53330230712891 38.20024871826172 L 41.53330230712891 27.15559768676758 L 41.53330230712891 27.05559921264648 L 41.63330078125 27.05559921264648 C 41.99469375610352 27.05559921264648 42.15929412841797 26.78038024902344 42.15929412841797 26.524658203125 C 42.15929412841797 26.26876831054688 41.99469375610352 25.99335861206055 41.63330078125 25.99335861206055 L 38.79326248168945 25.99335861206055 L 38.69326400756836 25.99335861206055 L 38.69326400756836 25.89336013793945 L 38.69326400756836 25.26223754882812 C 38.69326400756836 24.62136840820312 38.17187118530273 24.0999870300293 37.53100204467773 24.0999870300293 L 33.74428176879883 24.0999870300293 M 37.63100433349609 25.99335861206055 L 37.53100204467773 25.99335861206055 L 33.74428176879883 25.99335861206055 L 33.64428329467773 25.99335861206055 L 33.64428329467773 25.89336013793945 L 33.64428329467773 25.26223754882812 L 33.64428329467773 25.16223907470703 L 33.74428176879883 25.16223907470703 L 37.53100204467773 25.16223907470703 L 37.63100433349609 25.16223907470703 L 37.63100433349609 25.26223754882812 L 37.63100433349609 25.89336013793945 L 37.63100433349609 25.99335861206055 M 39.42437362670898 39.24692916870117 L 31.85091400146484 39.24692916870117 C 31.26399230957031 39.24692916870117 30.80423355102539 38.78717041015625 30.80423355102539 38.20024871826172 L 30.80423355102539 27.15559768676758 L 30.80423355102539 27.05559921264648 L 30.90423202514648 27.05559921264648 L 40.37105560302734 27.05559921264648 L 40.47105407714844 27.05559921264648 L 40.47105407714844 27.15559768676758 L 40.47105407714844 38.20024871826172 C 40.47105407714844 38.78717041015625 40.01129150390625 39.24692916870117 39.42437362670898 39.24692916870117 M 32.5820426940918 29.14896774291992 L 32.5820426940918 37.15355682373047 L 33.64428329467773 37.15355682373047 L 33.64428329467773 29.14896774291992 L 32.5820426940918 29.14896774291992 M 35.10652160644531 29.14896774291992 L 35.10652160644531 37.15355682373047 L 36.16877365112305 37.15355682373047 L 36.16877365112305 29.14896774291992 L 35.10652160644531 29.14896774291992 M 37.63100433349609 29.14896774291992 L 37.63100433349609 37.15355682373047 L 38.69326400756836 37.15355682373047 L 38.69326400756836 29.14896774291992 L 37.63100433349609 29.14896774291992 M 33.74428176879883 23.9999885559082 L 37.53100204467773 23.9999885559082 C 38.22524261474609 23.9999885559082 38.79326248168945 24.56799697875977 38.79326248168945 25.26223754882812 L 38.79326248168945 25.89336013793945 L 41.63330078125 25.89336013793945 C 42.46764373779297 25.89336013793945 42.4682731628418 27.15559768676758 41.63330078125 27.15559768676758 L 41.63330078125 38.20024871826172 C 41.63330078125 39.43093109130859 40.65506362915039 40.4091682434082 39.42437362670898 40.4091682434082 L 31.85091400146484 40.4091682434082 C 30.62023162841797 40.4091682434082 29.64200210571289 39.43093109130859 29.64200210571289 38.20024871826172 L 29.64200210571289 27.15559768676758 C 28.80796432495117 27.15559768676758 28.80639266967773 25.89336013793945 29.64200210571289 25.89336013793945 L 32.4820442199707 25.89336013793945 L 32.4820442199707 25.26223754882812 C 32.4820442199707 24.56799697875977 33.05005264282227 23.9999885559082 33.74428176879883 23.9999885559082 Z M 37.53100204467773 25.89336013793945 L 37.53100204467773 25.26223754882812 L 33.74428176879883 25.26223754882812 L 33.74428176879883 25.89336013793945 L 37.53100204467773 25.89336013793945 Z M 39.42437362670898 39.14692687988281 C 39.96083068847656 39.14692687988281 40.37105560302734 38.73668670654297 40.37105560302734 38.20024871826172 L 40.37105560302734 27.15559768676758 L 30.90423202514648 27.15559768676758 L 30.90423202514648 38.20024871826172 C 30.90423202514648 38.73668670654297 31.3144645690918 39.14692687988281 31.85091400146484 39.14692687988281 L 39.42437362670898 39.14692687988281 Z M 32.4820442199707 29.04896926879883 L 33.74428176879883 29.04896926879883 L 33.74428176879883 37.25355911254883 L 32.4820442199707 37.25355911254883 L 32.4820442199707 29.04896926879883 Z M 35.00652313232422 29.04896926879883 L 36.26877212524414 29.04896926879883 L 36.26877212524414 37.25355911254883 L 35.00652313232422 37.25355911254883 L 35.00652313232422 29.04896926879883 Z M 37.53100204467773 29.04896926879883 L 38.79326248168945 29.04896926879883 L 38.79326248168945 37.25355911254883 L 37.53100204467773 37.25355911254883 L 37.53100204467773 29.04896926879883 Z"/></g></svg>