<svg xmlns="http://www.w3.org/2000/svg" width="18.844" height="18.843" viewBox="0 0 18.844 18.843"><defs><style>.a{fill:#3b5998;}</style></defs><g transform="translate(0 0)"><path class="a" d="M16.488,0H2.355A2.358,2.358,0,0,0,0,2.355V16.488a2.358,2.358,0,0,0,2.355,2.355H9.422V12.366H7.066V9.421H9.422V7.066a3.533,3.533,0,0,1,3.533-3.533h2.355V6.477H14.133c-.65,0-1.178-.061-1.178.589V9.421H15.9l-1.178,2.944H12.955v6.477h3.533a2.358,2.358,0,0,0,2.355-2.355V2.355A2.358,2.358,0,0,0,16.488,0Z"/></g></svg>