<svg xmlns="http://www.w3.org/2000/svg" width="18.166" height="18.126" viewBox="0 0 18.166 18.126"><defs><style>.a{fill:#adadad;stroke:#adadad;stroke-width:0.1px;}</style></defs><g transform="translate(28.069 2.352)"><path class="a" d="M-11.775,10.724a.643.643,0,0,0-.643.643v7.714H-22.7V11.367a.643.643,0,0,0-.643-.643.643.643,0,0,0-.643.643v8.357a.643.643,0,0,0,.643.643h11.572a.643.643,0,0,0,.643-.643V11.367A.643.643,0,0,0-11.775,10.724Z" transform="translate(-1.425 -4.643)"/><path class="a" d="M-10.213,4.948-18.57-2.124a.642.642,0,0,0-.831,0l-8.357,7.071a.643.643,0,0,0-.062.907.643.643,0,0,0,.893.074l7.942-6.72,7.942,6.72a.643.643,0,0,0,.905-.088A.643.643,0,0,0-10.213,4.948Z"/></g></svg>