<svg xmlns="http://www.w3.org/2000/svg" width="17.712" height="20" viewBox="0 0 17.712 20"><defs><style>.a{fill:#01009a;}</style></defs><g transform="translate(-31.504)"><path class="a" d="M333.9,250.383c-.955,0-1.511.909-1.511,2.123s.574,2.086,1.52,2.086,1.5-.908,1.5-2.123C335.407,251.347,334.869,250.383,333.9,250.383Z" transform="translate(-289.956 -241.291)"/><path class="a" d="M48.1,7.154h-.48V4.837a.338.338,0,0,0,0-.044.386.386,0,0,0-.093-.254L43.662.134l0,0A.383.383,0,0,0,43.58.066L43.555.051a.409.409,0,0,0-.077-.033L43.456.011A.4.4,0,0,0,43.366,0H33.889a.785.785,0,0,0-.784.784V7.154h-.48A1.121,1.121,0,0,0,31.5,8.275V14.1a1.121,1.121,0,0,0,1.121,1.121h.48v3.99A.785.785,0,0,0,33.89,20H46.831a.785.785,0,0,0,.784-.784v-3.99h.48A1.121,1.121,0,0,0,49.216,14.1V8.275A1.121,1.121,0,0,0,48.1,7.154ZM33.889.784h9.085V4.8a.392.392,0,0,0,.392.392h3.464V7.154H33.889Zm5.294,12.46a3.534,3.534,0,0,0,1.177-.2l.213,1.1a4.018,4.018,0,0,1-1.6.269A2.971,2.971,0,0,1,35.7,11.289,3.185,3.185,0,0,1,39.109,7.97a3.677,3.677,0,0,1,1.539.278L40.36,9.37a3.058,3.058,0,0,0-1.187-.231,1.879,1.879,0,0,0-1.993,2.067A1.866,1.866,0,0,0,39.183,13.245ZM33.342,14.32V8.073H34.76V14.32H33.342ZM46.831,19H33.889V15.225H46.831V19Zm-2.955-4.581a2.913,2.913,0,0,1-2.938-3.18,3.024,3.024,0,0,1,3.04-3.272,2.912,2.912,0,0,1,2.966,3.161A2.979,2.979,0,0,1,43.875,14.422Z" transform="translate(0)"/></g></svg>