<svg xmlns="http://www.w3.org/2000/svg" width="15.881" height="15.529" viewBox="0 0 15.881 15.529"><defs><style>.a{fill:#6f6f6f;}</style></defs><g transform="translate(-3194.44 -1875.234)"><path class="a" d="M131.719,121.508a7.644,7.644,0,0,0,0,10.981,8.069,8.069,0,0,0,11.23,0,7.644,7.644,0,0,0,0-10.981A8.069,8.069,0,0,0,131.719,121.508Zm5.933.984a1.2,1.2,0,1,1,0,2.393,1.22,1.22,0,0,1-1.223-1.213A1.2,1.2,0,0,1,137.652,122.492Zm1.727,8.014a.789.789,0,0,1-.168.279,2.21,2.21,0,0,1-1.609.705,5.285,5.285,0,0,1-.888-.05,1.272,1.272,0,0,1-1.023-1.278l.2-1.278c.134-.738.268-1.492.4-2.229,0-.049.016-.1.016-.148,0-.311-.1-.426-.419-.459a3.5,3.5,0,0,1-.4-.065.289.289,0,0,1-.218-.295c.017-.131.1-.213.268-.246a1.517,1.517,0,0,1,.285-.017h2.313c.285,0,.453.132.453.41a3.245,3.245,0,0,1-.084.689c-.151.852-.318,1.688-.469,2.54-.051.279-.118.557-.151.836a1.143,1.143,0,0,0,.033.41.333.333,0,0,0,.369.262,1.616,1.616,0,0,0,.453-.131,3.042,3.042,0,0,1,.335-.164C139.278,130.211,139.429,130.326,139.379,130.506Z" transform="translate(3065.047 1756)"/></g></svg>