<svg xmlns="http://www.w3.org/2000/svg" width="18.475" height="16.27" viewBox="0 0 18.475 16.27"><defs><style>.a{fill:#adadad;}</style></defs><path class="a" d="M-163.169-4.523a.751.751,0,0,1-.751-.751v-2.5a2.253,2.253,0,0,1,2.253-2.253h6.46a2.253,2.253,0,0,1,2.253,2.253V3.987a2.253,2.253,0,0,1-2.253,2.253h-6.458a2.253,2.253,0,0,1-2.253-2.253V1.734a.751.751,0,0,1,.751-.751.751.751,0,0,1,.751.751V3.987a.751.751,0,0,0,.751.751h6.458a.751.751,0,0,0,.751-.751V-7.777a.751.751,0,0,0-.751-.751h-6.458a.751.751,0,0,0-.751.751v2.5a.751.751,0,0,1-.751.751Z" transform="translate(171.43 10.03)"/><path class="a" d="M-130.968,8.7a.751.751,0,0,1-.751.751h-10.315l2.783,2.753a.751.751,0,0,1-.029,1.062.751.751,0,0,1-1.024.007l-4.082-4.037a.751.751,0,0,1-.007-1.062l.007-.007,4.082-4.032a.751.751,0,0,1,1.061.044.751.751,0,0,1-.007,1.024l-2.783,2.753h10.315A.751.751,0,0,1-130.968,8.7Z" transform="translate(144.61 -0.442)"/></svg>