<svg xmlns="http://www.w3.org/2000/svg" width="18" height="11.745" viewBox="0 0 18 11.745"><defs><style>.a{fill:#adadad;}.b,.c{stroke:none;}.c{fill:#adadad;}</style></defs><g class="a" transform="translate(-2.16 -18.85)"><path class="b" d="M 18.44596290588379 30.56948280334473 C 17.99535369873047 30.56948280334473 17.5713939666748 30.39333152770996 17.25216293334961 30.0734920501709 C 16.71667289733887 29.53513145446777 16.60458374023438 28.69784164428711 16.97963333129883 28.03736305236816 L 16.98902320861816 28.02083206176758 L 16.97559356689453 28.00736236572266 L 12.44498348236084 23.46604156494141 L 12.43094348907471 23.45197296142578 L 12.41406345367432 23.46248245239258 C 12.19344329833984 23.59994316101074 11.95168304443359 23.69909286499023 11.69549369812012 23.75717163085938 L 11.67602348327637 23.76158142089844 L 11.67602348327637 23.78155326843262 L 11.67602348327637 27.25381278991699 L 11.67602348327637 27.27154159545898 L 11.69275283813477 27.27740287780762 C 12.37035369873047 27.51481246948242 12.82561302185059 28.15692329406738 12.82561302185059 28.8752326965332 C 12.82561302185059 29.80830192565918 12.06791305541992 30.56741142272949 11.13657283782959 30.56741142272949 C 10.20524311065674 30.56741142272949 9.447543144226074 29.80830192565918 9.447543144226074 28.8752326965332 C 9.447543144226074 28.15600204467773 9.902792930603027 27.51389312744141 10.58037376403809 27.27741241455078 L 10.59713363647461 27.27156257629395 L 10.59713363647461 27.25381278991699 L 10.59713363647461 23.78136253356934 L 10.59713363647461 23.76143264770508 L 10.57770347595215 23.75699234008789 C 10.32333374023438 23.69890213012695 10.08153343200684 23.5997314453125 9.859013557434082 23.46224212646484 L 9.8421630859375 23.45183181762695 L 9.828183174133301 23.46585273742676 L 5.329553127288818 27.97325325012207 L 5.322243213653564 27.98057174682617 L 5.322243213653564 27.99091148376465 L 5.322243213653564 27.99782180786133 L 5.325793266296387 28.0056324005127 C 5.482253074645996 28.26710319519043 5.564953327178955 28.56780242919922 5.564953327178955 28.8752326965332 C 5.564953327178955 29.32622146606445 5.389123439788818 29.75179290771484 5.069843292236328 30.07354164123535 C 4.752013206481934 30.39200210571289 4.327983379364014 30.56741142272949 3.875913381576538 30.56741142272949 C 3.422643423080444 30.56741142272949 2.99794340133667 30.39200210571289 2.68004322052002 30.0734920501709 C 2.360833406448364 29.75179290771484 2.185003280639648 29.32622146606445 2.185003280639648 28.8752326965332 C 2.186863422393799 28.42177200317383 2.362673282623291 27.99685287475586 2.680053234100342 27.67885208129883 C 2.999283313751221 27.35901260375977 3.423983335494995 27.18286323547363 3.875913381576538 27.18286323547363 C 4.076983451843262 27.18286323547363 4.276013374328613 27.21850204467773 4.467503070831299 27.28878211975098 L 4.482513427734375 27.29429244995117 L 4.49380350112915 27.28297233581543 L 9.054523468017578 22.7133731842041 L 9.068753242492676 22.69912147521973 L 9.057863235473633 22.68218231201172 C 8.803203582763672 22.28632164001465 8.66860294342041 21.82491302490234 8.66860294342041 21.34782218933105 C 8.66860294342041 19.98430252075195 9.77573299407959 18.87500190734863 11.13657283782959 18.87500190734863 C 12.49741363525391 18.87500190734863 13.60454368591309 19.98430252075195 13.60454368591309 21.34782218933105 C 13.60454368591309 21.82461166381836 13.46994304656982 22.28603172302246 13.21528339385986 22.68219184875488 L 13.20440292358398 22.69912147521973 L 13.21861362457275 22.7133731842041 L 17.79251289367676 27.29805183410645 L 17.80424308776855 27.3098030090332 L 17.81962394714355 27.30355262756348 C 18.01684379577637 27.22347259521484 18.22763252258301 27.18286323547363 18.44615364074707 27.18286323547363 C 18.89643287658691 27.18286323547363 19.32114410400391 27.35902214050293 19.64206314086914 27.67890167236328 C 19.96011352539063 27.99757194519043 20.13519287109375 28.42245292663574 20.1350040435791 28.87522315979004 C 20.1350040435791 29.32744216918945 19.95984268188477 29.75301170349121 19.64177322387695 30.07354164123535 C 19.32261276245117 30.39333152770996 18.89791297912598 30.56948280334473 18.44596290588379 30.56948280334473 Z M 11.13657283782959 28.26395225524902 C 10.80014324188232 28.26395225524902 10.52643299102783 28.53817176818848 10.52643299102783 28.8752326965332 C 10.52643299102783 29.21219253540039 10.80014324188232 29.4863224029541 11.13657283782959 29.4863224029541 C 11.47300338745117 29.4863224029541 11.74671363830566 29.21219253540039 11.74671363830566 28.8752326965332 C 11.74671363830566 28.53817176818848 11.47300338745117 28.26395225524902 11.13657283782959 28.26395225524902 Z M 18.44615364074707 28.26395225524902 C 18.28314399719238 28.26395225524902 18.12986373901367 28.32748222351074 18.0145435333252 28.44282150268555 C 17.77752304077148 28.68208312988281 17.77754402160645 29.06998252868652 18.01452255249023 29.3076114654541 C 18.12500381469727 29.41831207275391 18.28258323669434 29.48180198669434 18.44686317443848 29.48180198669434 C 18.61117362976074 29.48180198669434 18.76826286315918 29.41828155517578 18.87785339355469 29.30755233764648 C 18.99284362792969 29.19430160522461 19.05629348754883 29.04069328308105 19.05629348754883 28.8752326965332 C 19.05629348754883 28.71174240112305 18.99289321899414 28.55819320678711 18.87778282165527 28.44284248352051 C 18.76264381408691 28.32748222351074 18.6093635559082 28.26395225524902 18.44615364074707 28.26395225524902 Z M 3.875913381576538 28.26395225524902 C 3.710763216018677 28.26395225524902 3.55742335319519 28.3275318145752 3.444143295288086 28.4429931640625 C 3.327963352203369 28.55940246582031 3.263893365859985 28.71295166015625 3.263893365859985 28.8752326965332 C 3.263893365859985 29.03949165344238 3.32801342010498 29.19310188293457 3.444453239440918 29.30777168273926 C 3.553813219070435 29.41828155517578 3.710893392562866 29.48180198669434 3.875213384628296 29.48180198669434 C 4.039493083953857 29.48180198669434 4.197063446044922 29.41831207275391 4.307543277740479 29.3076229095459 C 4.42266321182251 29.19228172302246 4.486063480377197 29.03872299194336 4.486063480377197 28.8752326965332 C 4.486063480377197 28.71174240112305 4.42266321182251 28.55818176269531 4.307533264160156 28.44284248352051 C 4.192403316497803 28.32748222351074 4.03912353515625 28.26395225524902 3.875913381576538 28.26395225524902 Z M 11.13657283782959 19.95609283447266 C 10.37063312530518 19.95609283447266 9.747493743896484 20.58042144775391 9.747493743896484 21.34782218933105 C 9.747493743896484 21.72689247131348 9.897852897644043 22.08206176757813 10.17086315155029 22.34790229797363 C 10.43059349060059 22.60047149658203 10.77355289459229 22.73956298828125 11.13657283782959 22.73956298828125 C 11.49890327453613 22.73956298828125 11.84250354766846 22.60049247741699 12.10408306121826 22.34798240661621 C 12.37596321105957 22.08324241638184 12.52565288543701 21.72807312011719 12.52565288543701 21.34782218933105 C 12.52565288543701 20.58042144775391 11.90251350402832 19.95609283447266 11.13657283782959 19.95609283447266 Z"/><path class="c" d="M 18.44596290588379 30.54448318481445 C 18.89123344421387 30.54448318481445 19.30964279174805 30.37094306945801 19.62403297424316 30.05593299865723 C 19.93741416931152 29.74012184143066 20.1100025177002 29.32080268859863 20.1100025177002 28.87521171569824 C 20.11019325256348 28.42911148071289 19.93770408630371 28.01051330566406 19.62441253662109 27.69660186767578 C 19.30821418762207 27.38143157958984 18.88976287841797 27.20786285400391 18.44615364074707 27.20786285400391 C 18.23087310791016 27.20786285400391 18.02324295043945 27.24785232543945 17.82902336120605 27.32672309875488 L 17.79826354980469 27.33921241760254 L 17.77481269836426 27.31570243835449 L 13.20091342926025 22.73102188110352 L 13.17249298095703 22.7025318145752 L 13.19425296783447 22.66867256164551 C 13.44631290435791 22.27655220031738 13.5795431137085 21.8198127746582 13.5795431137085 21.34782218933105 C 13.5795431137085 19.99809265136719 12.48363304138184 18.90000152587891 11.13657283782959 18.90000152587891 C 9.78951358795166 18.90000152587891 8.693603515625 19.99809265136719 8.693603515625 21.34782218933105 C 8.693603515625 21.82010269165039 8.826833724975586 22.27684211730957 9.078883171081543 22.66866302490234 L 9.100673675537109 22.7025318145752 L 9.072223663330078 22.73103141784668 L 4.511503219604492 27.30063247680664 L 4.488913536071777 27.32327270507813 L 4.458883285522461 27.31225204467773 C 4.270173072814941 27.24298286437988 4.074033260345459 27.20786285400391 3.875913381576538 27.20786285400391 C 3.430663347244263 27.20786285400391 3.012253284454346 27.38140296936035 2.69774341583252 27.69651222229004 C 2.385053396224976 28.00982284545898 2.211833238601685 28.42850303649902 2.21000337600708 28.8752326965332 C 2.21000337600708 29.31958198547363 2.383253335952759 29.7388916015625 2.69774341583252 30.05583190917969 C 3.010913372039795 30.3696117401123 3.429323196411133 30.54241180419922 3.875913381576538 30.54241180419922 C 4.321303367614746 30.54241180419922 4.739043235778809 30.3696117401123 5.052103519439697 30.05593299865723 C 5.366693496704102 29.7389030456543 5.539953231811523 29.31958198547363 5.539953231811523 28.8752326965332 C 5.539953231811523 28.57232284545898 5.458483219146729 28.27606201171875 5.304333209991455 28.01846313476563 L 5.297243118286133 28.00473213195801 L 5.297243118286133 27.99091148376465 L 5.297243118286133 27.9702320098877 L 5.311853408813477 27.95559310913086 L 9.810482978820801 23.44819259643555 L 9.83846378326416 23.42016220092773 L 9.872153282165527 23.44097328186035 C 10.09233283996582 23.57701301574707 10.33158302307129 23.67514228820801 10.5832633972168 23.73262214660645 L 10.62213325500488 23.74149322509766 L 10.62213325500488 23.78136253356934 L 10.62213325500488 27.25381278991699 L 10.62213325500488 27.28932189941406 L 10.58861351013184 27.30102157592773 C 9.921052932739258 27.53399276733398 9.472543716430664 28.16662216186523 9.472543716430664 28.8752326965332 C 9.472543716430664 29.79452323913574 10.21902370452881 30.54241180419922 11.13657283782959 30.54241180419922 C 12.05412292480469 30.54241180419922 12.80061340332031 29.79452323913574 12.80061340332031 28.8752326965332 C 12.80061340332031 28.16753196716309 12.35207366943359 27.53489303588867 11.68449306488037 27.30100250244141 L 11.65102291107178 27.28927230834961 L 11.65102291107178 27.25381278991699 L 11.65102291107178 23.78155326843262 L 11.65102291107178 23.74162292480469 L 11.68996334075928 23.73279190063477 C 11.9434232711792 23.67532157897949 12.18259334564209 23.57724189758301 12.40084362030029 23.44126319885254 L 12.43459320068359 23.42023277282715 L 12.46268367767334 23.44839286804199 L 16.99329376220703 27.98971176147461 L 17.0201530456543 28.01663208007813 L 17.00137329101563 28.04971313476563 C 16.63184356689453 28.70046234130859 16.74227333068848 29.52543258666992 17.26986312866211 30.05583190917969 C 17.58436393737793 30.37094306945801 18.00204277038574 30.54448318481445 18.44596290588379 30.54448318481445 M 11.13657283782959 28.23895263671875 C 11.48679351806641 28.23895263671875 11.77171325683594 28.52438163757324 11.77171325683594 28.8752326965332 C 11.77171325683594 29.22597312927246 11.48679351806641 29.51132202148438 11.13657283782959 29.51132202148438 C 10.78635311126709 29.51132202148438 10.50143337249756 29.22597312927246 10.50143337249756 28.8752326965332 C 10.50143337249756 28.52438163757324 10.78635311126709 28.23895263671875 11.13657283782959 28.23895263671875 M 18.44615364074707 28.23895263671875 C 18.61604309082031 28.23895263671875 18.7756233215332 28.30509185791016 18.89547348022461 28.4251823425293 C 19.01530265808105 28.54524230957031 19.0812931060791 28.70508193969727 19.0812931060791 28.8752326965332 C 19.0812931060791 29.04744148254395 19.01519393920898 29.20738220214844 18.8956241607666 29.32513236999512 C 18.78137397766113 29.44058227539063 18.6178035736084 29.50680160522461 18.44686317443848 29.50680160522461 C 18.27599334716797 29.50680160522461 18.11196327209473 29.44064140319824 17.99682235717773 29.32527160644531 C 17.75017356872559 29.07793235778809 17.75011253356934 28.6742115020752 17.99686241149902 28.42515182495117 C 18.11690330505371 28.30508232116699 18.27646255493164 28.23895263671875 18.44615364074707 28.23895263671875 M 3.875913381576538 28.23895263671875 C 4.045803070068359 28.23895263671875 4.20538330078125 28.30509185791016 4.325233459472656 28.4251823425293 C 4.44506311416626 28.54524230957031 4.511063098907471 28.7050724029541 4.511063098907471 28.8752326965332 C 4.511063098907471 29.0453929901123 4.44506311416626 29.20522308349609 4.325233459472656 29.32528305053711 C 4.210113525390625 29.44064140319824 4.046083450317383 29.50680160522461 3.875213384628296 29.50680160522461 C 3.704273223876953 29.50680160522461 3.540703296661377 29.44058227539063 3.426913261413574 29.32558250427246 C 3.305663347244263 29.2061824798584 3.238893270492554 29.04624176025391 3.238893270492554 28.8752326965332 C 3.238893270492554 28.7062931060791 3.305553197860718 28.54645156860352 3.426303386688232 28.42548179626465 C 3.544323205947876 28.30520248413086 3.703993320465088 28.23895263671875 3.875913381576538 28.23895263671875 M 11.13657283782959 19.93109321594238 C 11.91630363464355 19.93109321594238 12.5506534576416 20.5666332244873 12.5506534576416 21.34782218933105 C 12.5506534576416 21.73488235473633 12.39828300476074 22.09641265869141 12.12145328521729 22.36596298217773 C 11.85518360137939 22.62300300598145 11.50541305541992 22.76456260681152 11.13657283782959 22.76456260681152 C 10.76701354980469 22.76456260681152 10.41786289215088 22.62296295166016 10.15342330932617 22.36581230163574 C 9.875533103942871 22.0952320098877 9.722493171691895 21.73370170593262 9.722493171691895 21.34782218933105 C 9.722493171691895 20.5666332244873 10.35684299468994 19.93109321594238 11.13657283782959 19.93109321594238 M 18.44596290588379 30.594482421875 C 17.98895263671875 30.594482421875 17.5580940246582 30.41540145874023 17.23447418212891 30.09115219116211 C 16.67755317687988 29.5312614440918 16.58536338806152 28.68106269836426 16.95789337158203 28.02502250671387 L 12.42728328704834 23.48370170593262 C 12.20338344573975 23.62320327758789 11.95878314971924 23.72311210632324 11.70102310180664 23.78155326843262 L 11.70102310180664 27.25381278991699 C 12.3687629699707 27.48776245117188 12.85061359405518 28.12664222717285 12.85061359405518 28.8752326965332 C 12.85061359405518 29.82327270507813 12.08108329772949 30.5924129486084 11.13657283782959 30.5924129486084 C 10.19019317626953 30.5924129486084 9.422543525695801 29.82327270507813 9.422543525695801 28.8752326965332 C 9.422543525695801 28.12664222717285 9.902323722839355 27.48757171630859 10.57213306427002 27.25381278991699 L 10.57213306427002 23.78136253356934 C 10.31624317169189 23.72292327880859 10.07165336608887 23.62301254272461 9.84587287902832 23.48351287841797 L 5.347243309020996 27.99091148376465 L 5.347243309020996 27.9927921295166 C 5.505283355712891 28.25690269470215 5.589953422546387 28.56041145324707 5.589953422546387 28.8752326965332 C 5.589953422546387 29.33502197265625 5.411213397979736 29.76502227783203 5.087593078613281 30.09115219116211 C 4.763983249664307 30.41540145874023 4.333123207092285 30.5924129486084 3.875913381576538 30.5924129486084 C 3.416833400726318 30.5924129486084 2.985973358154297 30.41540145874023 2.662353277206421 30.09115219116211 C 2.338743209838867 29.76502227783203 2.160003423690796 29.33502197265625 2.160003423690796 28.8752326965332 C 2.161883354187012 28.41714286804199 2.338743209838867 27.98544311523438 2.662353277206421 27.66119194030762 C 2.985973358154297 27.33695220947266 3.416833400726318 27.15786170959473 3.875913381576538 27.15786170959473 C 4.084763526916504 27.15786170959473 4.286083221435547 27.1955623626709 4.476113319396973 27.26531219482422 L 9.036833763122559 22.69571304321289 C 8.780953407287598 22.29794311523438 8.643603324890137 21.83419227600098 8.643603324890137 21.34782218933105 C 8.643603324890137 19.9716625213623 9.763092994689941 18.85000228881836 11.13657283782959 18.85000228881836 C 12.51194286346436 18.85000228881836 13.62954330444336 19.9716625213623 13.62954330444336 21.34782218933105 C 13.62954330444336 21.83419227600098 13.49200344085693 22.29794311523438 13.23631286621094 22.69571304321289 L 17.81021308898926 27.28039169311523 C 18.00983238220215 27.19933319091797 18.22414398193359 27.15786170959473 18.44615364074707 27.15786170959473 C 18.90523338317871 27.15786170959473 19.33440399169922 27.33694267272949 19.65971374511719 27.66119194030762 C 19.98332405090332 27.98544311523438 20.16019248962402 28.4171314239502 20.16000366210938 28.8752326965332 C 20.16000366210938 29.33502197265625 19.9831428527832 29.76502227783203 19.65952301025391 30.09115219116211 C 19.33591270446777 30.41540145874023 18.90505409240723 30.594482421875 18.44596290588379 30.594482421875 Z M 11.13657283782959 28.2889518737793 C 10.81296348571777 28.2889518737793 10.55143356323242 28.55287170410156 10.55143356323242 28.8752326965332 C 10.55143356323242 29.19929313659668 10.81296348571777 29.46132278442383 11.13657283782959 29.46132278442383 C 11.45831298828125 29.46132278442383 11.72171306610107 29.19947242736816 11.72171306610107 28.8752326965332 C 11.72171306610107 28.55287170410156 11.45831298828125 28.2889518737793 11.13657283782959 28.2889518737793 Z M 18.44615364074707 28.2889518737793 C 18.28999328613281 28.2889518737793 18.14342308044434 28.34927177429199 18.03222274780273 28.46050262451172 C 17.80456352233887 28.6903018951416 17.80456352233887 29.06167221069336 18.03222274780273 29.28996276855469 C 18.14323425292969 29.40118789672852 18.29516410827637 29.45680046081543 18.44685745239258 29.45680046081543 C 18.59855270385742 29.45680046081543 18.75001335144043 29.40118789672852 18.86008262634277 29.28996276855469 C 18.97109413146973 29.18063163757324 19.03129386901855 29.03169250488281 19.03129386901855 28.8752326965332 C 19.03129386901855 28.7187614440918 18.97108268737793 28.57172203063965 18.86008262634277 28.46050262451172 C 18.74907302856445 28.34927177429199 18.60231399536133 28.2889518737793 18.44615364074707 28.2889518737793 Z M 3.875913381576538 28.2889518737793 C 3.719753265380859 28.2889518737793 3.571113348007202 28.34928321838379 3.461993217468262 28.46050262451172 C 3.350983381271362 28.57172203063965 3.288893222808838 28.7187614440918 3.288893222808838 28.8752326965332 C 3.288893222808838 29.03169250488281 3.350983381271362 29.18063163757324 3.461993217468262 29.28996276855469 C 3.572058200836182 29.40118789672852 3.723518371582031 29.45680046081543 3.875213384628296 29.45680046081543 C 4.026908397674561 29.45680046081543 4.17883825302124 29.40118789672852 4.289843082427979 29.28996276855469 C 4.400853157043457 29.17874145507813 4.461063385009766 29.03169250488281 4.461063385009766 28.8752326965332 C 4.461063385009766 28.7187614440918 4.400853157043457 28.57172203063965 4.289843082427979 28.46050262451172 C 4.178833484649658 28.34927177429199 4.032083511352539 28.2889518737793 3.875913381576538 28.2889518737793 Z M 11.13657283782959 19.98109245300293 C 10.38586330413818 19.98109245300293 9.772493362426758 20.59565162658691 9.772493362426758 21.34782218933105 C 9.772493362426758 21.72108268737793 9.921133041381836 22.06984329223633 10.18830299377441 22.32999229431152 C 10.44419288635254 22.57882308959961 10.78097343444824 22.71456146240234 11.13657283782959 22.71456146240234 C 11.49217319488525 22.71456146240234 11.82896327972412 22.57882308959961 12.08672332763672 22.32999229431152 C 12.3538932800293 22.06984329223633 12.50065326690674 21.72108268737793 12.50065326690674 21.34782218933105 C 12.50065326690674 20.59565162658691 11.88917350769043 19.98109245300293 11.13657283782959 19.98109245300293 Z"/></g></svg>