<svg xmlns="http://www.w3.org/2000/svg" width="15.947" height="17.667" viewBox="0 0 15.947 17.667"><defs><style>.a{fill:#343b41;}.b{fill:#ec1b1f;}</style></defs><g transform="translate(-1055 -31)"><g transform="translate(1030.5 9)"><g transform="translate(24.5 22)"><path class="a" d="M35.113,37.322a2.658,2.658,0,0,1-5.279,0H26.223a1.72,1.72,0,1,1,0-3.44.157.157,0,0,0,.156-.157V29.973a6.1,6.1,0,0,1,4.221-5.8v-.294a1.876,1.876,0,1,1,3.752,0v.294a6.1,6.1,0,0,1,4.221,5.8v3.752a.155.155,0,0,0,.156.157,1.72,1.72,0,1,1,0,3.44Zm-.948,0H30.782a1.72,1.72,0,0,0,3.383,0ZM31.183,24.977a5.16,5.16,0,0,0-3.869,5v3.752A1.1,1.1,0,0,1,26.22,34.82a.782.782,0,1,0,0,1.563h12.5a.782.782,0,1,0,0-1.563,1.093,1.093,0,0,1-1.094-1.095V29.973a5.161,5.161,0,0,0-3.869-5l-.352-.091v-1.01a.938.938,0,1,0-1.876,0v1.01Z" transform="translate(-24.5 -22)"/></g></g><ellipse class="b" cx="3.035" cy="3.035" rx="3.035" ry="3.035" transform="translate(1064.429 32.76)"/></g></svg>