<svg xmlns="http://www.w3.org/2000/svg" width="15.395" height="18.199" viewBox="0 0 15.395 18.199"><defs><style>.a{fill:#adadad;stroke:#adadad;stroke-width:0.2px;}</style></defs><path class="a" d="M25.1,16.877a2.688,2.688,0,1,0-2.688-2.688A2.688,2.688,0,0,0,25.1,16.877Zm0-4.675a1.987,1.987,0,1,1-1.987,1.987A1.987,1.987,0,0,1,25.1,12.2ZM20.656,23.188a3.156,3.156,0,1,0,3.156,3.156A3.156,3.156,0,0,0,20.656,23.188Zm0,5.61a2.455,2.455,0,1,1,2.455-2.455A2.455,2.455,0,0,1,20.656,28.8Zm8.883-5.61a3.156,3.156,0,1,0,3.156,3.156,3.156,3.156,0,0,0-3.156-3.156Zm0,5.61a2.455,2.455,0,1,1,2.455-2.455A2.455,2.455,0,0,1,29.539,28.8Zm-.351-8.416H21.006V22.37a.351.351,0,1,1-.7,0V20.032a.351.351,0,0,1,.351-.351h4.091V17.695a.351.351,0,0,1,.7,0v1.987h4.091a.351.351,0,0,1,.351.351V22.37a.351.351,0,0,1-.7,0Z" transform="translate(-17.4 -11.4)"/></svg>