<svg xmlns="http://www.w3.org/2000/svg" width="18" height="10.198" viewBox="0 0 18 10.198"><defs><style>.a{fill:#adadad;}.b,.c{stroke:none;}.c{fill:#343b41;}</style></defs><g class="a"><path class="b" d="M 17.95000076293945 10.14833736419678 L 0.05000000074505806 10.14833736419678 L 0.05000000074505806 9.04999828338623 L 17.95000076293945 9.04999828338623 L 17.95000076293945 10.14833736419678 Z M 16.45207977294922 7.1524977684021 L 1.547919988632202 7.1524977684021 L 1.547919988632202 6.04791784286499 L 16.45207977294922 6.04791784286499 L 16.45207977294922 7.1524977684021 Z M 14.9541597366333 4.150417804718018 L 3.052079916000366 4.150417804718018 L 3.052079916000366 3.052077770233154 L 14.9541597366333 3.052077770233154 L 14.9541597366333 4.150417804718018 Z M 13.44999980926514 1.148337841033936 L 4.550000190734863 1.148337841033936 L 4.550000190734863 0.04999782517552376 L 13.44999980926514 0.04999782517552376 L 13.44999980926514 1.148337841033936 Z"/><path class="c" d="M 17.89999961853027 10.09833812713623 L 17.89999961853027 9.099997520446777 L 0.1000000014901161 9.099997520446777 L 0.1000000014901161 10.09833812713623 L 17.89999961853027 10.09833812713623 M 16.40208053588867 7.102498054504395 L 16.40208053588867 6.097918033599854 L 1.597919940948486 6.097918033599854 L 1.597919940948486 7.102498054504395 L 16.40208053588867 7.102498054504395 M 14.90415954589844 4.100417613983154 L 14.90415954589844 3.102077722549438 L 3.102080106735229 3.102077722549438 L 3.102080106735229 4.100417613983154 L 14.90415954589844 4.100417613983154 M 13.39999961853027 1.098337769508362 L 13.39999961853027 0.09999782592058182 L 4.599999904632568 0.09999782592058182 L 4.599999904632568 1.098337769508362 L 13.39999961853027 1.098337769508362 M 18 10.19833755493164 L 0 10.19833755493164 L 0 8.999998092651367 L 18 8.999998092651367 L 18 10.19833755493164 Z M 16.5020809173584 7.202497959136963 L 1.497920036315918 7.202497959136963 L 1.497920036315918 5.997917652130127 L 16.5020809173584 5.997917652130127 L 16.5020809173584 7.202497959136963 Z M 15.00415992736816 4.200417995452881 L 3.002079963684082 4.200417995452881 L 3.002079963684082 3.00207781791687 L 15.00415992736816 3.00207781791687 L 15.00415992736816 4.200417995452881 Z M 13.5 1.19833779335022 L 4.5 1.19833779335022 L 4.5 -2.176208454329753e-06 L 13.5 -2.176208454329753e-06 L 13.5 1.19833779335022 Z"/></g></svg>