<svg xmlns="http://www.w3.org/2000/svg" width="18.223" height="18.049" viewBox="0 0 18.223 18.049"><defs><style>.a{fill:#adadad;stroke:#adadad;stroke-width:0.2px;}</style></defs><g transform="translate(-1920.881 -350.9)"><g transform="translate(1920.986 351)"><path class="a" d="M35.5,6.55A2.55,2.55,0,1,0,38.05,4,2.55,2.55,0,0,0,35.5,6.55Zm4.462,0A1.912,1.912,0,1,1,38.05,4.637,1.912,1.912,0,0,1,39.962,6.55Z" transform="translate(-25.455 -4)"/><path class="a" d="M20.087,24.594A1.594,1.594,0,0,0,18.493,23H14.668a1.594,1.594,0,0,0-1.594,1.594H11.162a.319.319,0,0,0-.061,0,2.55,2.55,0,0,0-4.067,2.827A.3.3,0,0,0,7,27.466L4.029,32.881a.319.319,0,0,0,.28.478H5.9v1.116a.319.319,0,0,0,.319.319H12.6a.319.319,0,0,0,.319-.319V33.359h4.3a.319.319,0,0,0,.28-.166l4.462-8.128a.319.319,0,0,0-.28-.472Zm-5.419-.956h3.825a.956.956,0,0,1,.956.956H13.712A.956.956,0,0,1,14.668,23.637Zm-5.259.956A1.912,1.912,0,1,1,7.5,26.506,1.912,1.912,0,0,1,9.409,24.594Zm2.869,9.562H6.54v-2.55A.956.956,0,0,1,7.5,30.65h3.825a.956.956,0,0,1,.956.956Zm4.752-1.434H12.915V31.606a1.594,1.594,0,0,0-1.594-1.594H7.5A1.594,1.594,0,0,0,5.9,31.606v1.116H4.848l2.55-4.65a2.55,2.55,0,0,0,4.217-2.84h9.527Z" transform="translate(-3.986 -16.944)"/></g></g></svg>