<svg xmlns="http://www.w3.org/2000/svg" width="18.891" height="19.312" viewBox="0 0 18.891 19.312"><defs><style>.a{opacity:0.5;}.b{fill:#707070;}</style></defs><g class="a"><g transform="translate(0 0)"><path class="b" d="M21.194,9.395a6.7,6.7,0,1,0,13.4,0,6.7,6.7,0,1,0-13.4,0c-.02.64-1.02.64-1,0a7.7,7.7,0,1,1,15.4,0,7.7,7.7,0,1,1-15.4,0C20.174,8.755,21.174,8.755,21.194,9.395Z" transform="translate(-20.194 -1.694)"/></g><g transform="translate(12.251 12.674)"><rect class="b" width="7.4" height="0.56" transform="translate(5.729 6.141) rotate(-135)"/><path class="b" d="M4,65.208c1.74,1.76,3.48,3.5,5.24,5.24a.483.483,0,0,1,0,.7l-.4.4a.483.483,0,0,1-.7,0L2.9,66.308a.483.483,0,0,1,0-.7l.4-.4c.46-.46,1.16.26.7.7l-.4.4v-.7c1.74,1.76,3.48,3.5,5.22,5.24h-.7l.4-.4v.7l-5.24-5.24C2.84,65.468,3.54,64.768,4,65.208Z" transform="translate(-2.75 -65.06)"/></g></g></svg>