<svg xmlns="http://www.w3.org/2000/svg" width="18" height="14.923" viewBox="0 0 18 14.923"><defs><style>.a{fill:#adadad;}</style></defs><path class="a" d="M3.462,8.549A1.168,1.168,0,0,0,2.3,9.716v.439H.467a.467.467,0,0,0,0,.933H2.3v.438a1.168,1.168,0,0,0,1.167,1.167H5.273A1.168,1.168,0,0,0,6.44,11.526v-.438H17.533a.467.467,0,0,0,0-.933H6.44V9.716A1.168,1.168,0,0,0,5.273,8.549H3.462Zm0,.933H5.273a.234.234,0,0,1,.233.233v1.811a.234.234,0,0,1-.233.233H3.462a.234.234,0,0,1-.233-.233V9.716a.234.234,0,0,1,.233-.233Zm9.265,4.265a1.168,1.168,0,0,0-1.167,1.167v.439H.467a.467.467,0,0,0,0,.933H11.56v.438a1.168,1.168,0,0,0,1.167,1.167h1.811A1.168,1.168,0,0,0,15.7,16.724v-.438h1.829a.467.467,0,0,0,0-.933H15.7v-.439a1.168,1.168,0,0,0-1.167-1.167H12.727Zm0,.933h1.811a.234.234,0,0,1,.233.233v1.811a.234.234,0,0,1-.233.233H12.727a.234.234,0,0,1-.233-.233V14.914A.234.234,0,0,1,12.727,14.68ZM6.741,19.327a1.168,1.168,0,0,0-1.167,1.167v.438H.467a.467.467,0,1,0,0,.933H5.574V22.3a1.168,1.168,0,0,0,1.167,1.167H8.552A1.168,1.168,0,0,0,9.718,22.3v-.439h7.815a.467.467,0,0,0,0-.933H9.718v-.438a1.168,1.168,0,0,0-1.167-1.167H6.741Zm0,.933H8.552a.234.234,0,0,1,.233.233V22.3a.234.234,0,0,1-.233.233H6.741a.234.234,0,0,1-.233-.233V20.494A.234.234,0,0,1,6.741,20.261Z" transform="translate(0 -8.549)"/></svg>