<svg height='100px' width='100px'  fill="#000000" xmlns="http://www.w3.org/2000/svg" xmlns:xlink="http://www.w3.org/1999/xlink" version="1.1" x="0px" y="0px" viewBox="0 0 75 75" enable-background="new 0 0 75 75" xml:space="preserve"><path fill="#000000" d="M39.347,31.627c0,0.903-0.73,1.634-1.632,1.634c-0.903,0-1.634-0.731-1.634-1.634  c0-0.902,0.731-1.634,1.634-1.634C38.616,29.993,39.347,30.725,39.347,31.627z M35.752,34.217l-3.23,3.23l0.783,0.785l2.447-2.447  V34.217z M36.081,39.249v5.46h1.346v-5.46H36.081z M36.081,33.888v1.567v0.84v2.625h3.266v-2.625v-0.839v-1.567v-0.004h-3.266  V33.888z M38.001,39.249v5.46h1.346v-5.46H38.001z M39.676,34.217v1.567l2.447,2.447l0.782-0.785L39.676,34.217z M67.375,31.341  c0,0.903-0.73,1.634-1.633,1.634s-1.634-0.73-1.634-1.634c0-0.901,0.731-1.633,1.634-1.633S67.375,30.439,67.375,31.341z   M64.108,38.964v5.459h1.347v-5.459H64.108z M64.108,33.602v1.567v0.84v2.625h3.267v-2.625V35.17v-1.567v-0.004h-3.267V33.602z   M66.028,38.964v5.459h1.347v-5.459H66.028z M67.703,33.611v4.556h1.113v-3.445L67.703,33.611z M67.703,33.599v0.012l0.012-0.012  H67.703z M62.654,38.172h1.112v-4.564l-1.112,1.112V38.172z M63.763,33.605l0.004,0.003v-0.003H63.763z M10.906,31.341  c0,0.903-0.732,1.634-1.634,1.634s-1.634-0.73-1.634-1.634c0-0.901,0.732-1.633,1.634-1.633S10.906,30.439,10.906,31.341z   M7.639,38.964v5.459h1.347v-5.459H7.639z M7.639,33.602v1.567v0.84v2.625h3.268v-2.625V35.17v-1.567v-0.004H7.639V33.602z   M9.559,38.964v5.459h1.347v-5.459H9.559z M11.233,33.611v4.556h1.112v-3.445L11.233,33.611z M11.233,33.599v0.012l0.012-0.012  H11.233z M6.185,38.172h1.112v-4.564L6.185,34.72V38.172z M7.294,33.605l0.002,0.003v-0.003H7.294z M51.779,57.889  c0,0.902-0.73,1.633-1.634,1.633c-0.902,0-1.633-0.73-1.633-1.633s0.73-1.634,1.633-1.634  C51.049,56.255,51.779,56.986,51.779,57.889z M48.513,65.509v5.461h1.346v-5.461H48.513z M48.513,60.149v1.567v0.84v2.626h3.267  v-2.626v-0.84V60.15v-0.005h-3.267V60.149z M50.434,65.509v5.461h1.346v-5.461H50.434z M52.106,60.157v4.557h1.112V61.27  L52.106,60.157z M52.106,60.146v0.012l0.012-0.012H52.106z M47.059,64.719h1.111v-4.563l-1.111,1.111V64.719z M48.167,60.151  l0.003,0.004v-0.004H48.167z M51.779,5.999c0,0.903-0.73,1.634-1.634,1.634c-0.902,0-1.633-0.731-1.633-1.634  c0-0.902,0.73-1.634,1.633-1.634C51.049,4.365,51.779,5.096,51.779,5.999z M48.513,13.621v5.46h1.346v-5.46H48.513z M48.513,8.259  v1.568v0.84v2.625h3.267v-2.625v-0.84V8.26V8.256h-3.267V8.259z M50.434,13.621v5.46h1.346v-5.46H50.434z M52.106,8.268v4.556h1.112  V9.38L52.106,8.268z M52.106,8.256v0.012l0.012-0.012H52.106z M47.059,12.83h1.111V8.265l-1.111,1.112V12.83z M48.167,8.262  l0.003,0.003V8.262H48.167z M39.148,59.717c0,0.902-0.731,1.634-1.634,1.634c-0.902,0-1.633-0.731-1.633-1.634  c0-0.901,0.731-1.633,1.633-1.633C38.417,58.084,39.148,58.815,39.148,59.717z M35.881,67.339V72.8h1.347v-5.461H35.881z   M35.881,61.978v1.567v0.84v2.627h3.268v-2.627v-0.84v-1.565v-0.005h-3.268V61.978z M37.801,67.339V72.8h1.348v-5.461H37.801z   M39.476,61.986v4.557h1.111v-3.444L39.476,61.986z M39.476,61.975v0.012l0.012-0.012H39.476z M34.427,66.548h1.112v-4.563  l-1.112,1.111V66.548z M35.536,61.98l0.003,0.004V61.98H35.536z M39.148,3.834c0,0.902-0.731,1.633-1.634,1.633  c-0.902,0-1.633-0.731-1.633-1.633c0-0.902,0.731-1.634,1.633-1.634C38.417,2.201,39.148,2.933,39.148,3.834z M35.881,11.456v5.46  h1.347v-5.46H35.881z M35.881,6.095v1.567v0.839v2.626h3.268V8.502V7.663V6.096V6.091h-3.268V6.095z M37.801,11.456v5.46h1.348  v-5.46H37.801z M39.476,6.104v4.556h1.111V7.215L39.476,6.104z M39.476,6.091v0.012l0.012-0.012H39.476z M34.427,10.666h1.112V6.101  l-1.112,1.111V10.666z M35.536,6.098l0.003,0.003V6.098H35.536z M62.358,49.544c0,0.901-0.732,1.634-1.634,1.634  c-0.902,0-1.634-0.732-1.634-1.634c0-0.902,0.731-1.634,1.634-1.634C61.626,47.91,62.358,48.642,62.358,49.544z M59.091,57.166v5.46  h1.348v-5.46H59.091z M59.091,51.804v1.568v0.84v2.625h3.268v-2.625v-0.839v-1.568v-0.003h-3.268V51.804z M61.012,57.166v5.46h1.347  v-5.46H61.012z M62.686,51.813v4.556h1.112v-3.444L62.686,51.813z M62.686,51.802v0.012l0.012-0.012H62.686z M57.637,56.374h1.113  V51.81l-1.113,1.113V56.374z M58.746,51.808l0.004,0.002v-0.002H58.746z M62.358,13.356c0,0.902-0.732,1.634-1.634,1.634  c-0.902,0-1.634-0.731-1.634-1.634c0-0.902,0.731-1.634,1.634-1.634C61.626,11.723,62.358,12.455,62.358,13.356z M59.091,20.979  v5.46h1.348v-5.46H59.091z M59.091,15.618v1.567v0.839v2.626h3.268v-2.626v-0.839v-1.567v-0.004h-3.268V15.618z M61.012,20.979v5.46  h1.347v-5.46H61.012z M62.686,15.626v4.556h1.112v-3.444L62.686,15.626z M62.686,15.614v0.012l0.012-0.012H62.686z M57.637,20.188  h1.113v-4.564l-1.113,1.112V20.188z M58.746,15.62l0.004,0.003V15.62H58.746z M16.381,49.544c0,0.901-0.731,1.634-1.634,1.634  c-0.903,0-1.633-0.732-1.633-1.634c0-0.902,0.73-1.634,1.633-1.634C15.65,47.91,16.381,48.642,16.381,49.544z M13.114,57.166v5.46  h1.346v-5.46H13.114z M13.114,51.804v1.568v0.84v2.625h3.267v-2.625v-0.839v-1.568v-0.003h-3.267V51.804z M15.034,57.166v5.46h1.347  v-5.46H15.034z M16.708,51.813v4.556h1.112v-3.444L16.708,51.813z M16.708,51.802v0.012l0.013-0.012H16.708z M11.659,56.374h1.112  V51.81l-1.112,1.113V56.374z M12.768,51.808l0.003,0.002v-0.002H12.768z M16.381,13.356c0,0.902-0.731,1.634-1.634,1.634  c-0.903,0-1.633-0.731-1.633-1.634c0-0.902,0.73-1.634,1.633-1.634C15.65,11.723,16.381,12.455,16.381,13.356z M13.114,20.979v5.46  h1.346v-5.46H13.114z M13.114,15.618v1.567v0.839v2.626h3.267v-2.626v-0.839v-1.567v-0.004h-3.267V15.618z M15.034,20.979v5.46  h1.347v-5.46H15.034z M16.708,15.626v4.556h1.112v-3.444L16.708,15.626z M16.708,15.614v0.012l0.013-0.012H16.708z M11.659,20.188  h1.112v-4.564l-1.112,1.112V20.188z M12.768,15.62l0.003,0.003V15.62H12.768z M26.974,57.889c0,0.902-0.731,1.633-1.634,1.633  c-0.902,0-1.633-0.73-1.633-1.633s0.731-1.634,1.633-1.634C26.243,56.255,26.974,56.986,26.974,57.889z M23.707,65.509v5.461h1.347  v-5.461H23.707z M23.707,60.149v1.567v0.84v2.626h3.268v-2.626v-0.84V60.15v-0.005h-3.268V60.149z M25.627,65.509v5.461h1.347  v-5.461H25.627z M27.302,60.157v4.557h1.111V61.27L27.302,60.157z M27.302,60.146v0.012l0.011-0.012H27.302z M22.253,64.719h1.111  v-4.563l-1.111,1.111V64.719z M23.361,60.151l0.003,0.004v-0.004H23.361z M26.974,5.999c0,0.903-0.731,1.634-1.634,1.634  c-0.902,0-1.633-0.731-1.633-1.634c0-0.902,0.731-1.634,1.633-1.634C26.243,4.365,26.974,5.097,26.974,5.999z M23.707,13.621v5.46  h1.347v-5.46H23.707z M23.707,8.259v1.568v0.84v2.625h3.268v-2.625v-0.84V8.26V8.256h-3.268V8.259z M25.627,13.621v5.46h1.347v-5.46  H25.627z M27.302,8.268v4.556h1.111V9.38L27.302,8.268z M27.302,8.256v0.012l0.011-0.012H27.302z M22.253,12.83h1.111V8.265  l-1.111,1.112V12.83z M23.361,8.262l0.003,0.003V8.262H23.361z M49.082,26.144L47.2,26.977l0.492,0.493l-3.943,3.943l1.113,1.113  l3.943-3.943l0.493,0.493l0.834-1.883l0.832-1.883L49.082,26.144z M25.296,27.193l0.833,1.883l0.493-0.493l3.943,3.943l1.114-1.113  l-3.944-3.943l0.493-0.492l-1.882-0.834l-1.883-0.833L25.296,27.193z M50.965,51.272l-0.832-1.882l-0.834-1.883L48.806,48  l-3.943-3.942l-1.113,1.112l3.943,3.944L47.2,49.607l1.882,0.833L50.965,51.272z M24.462,51.272l1.883-0.832l1.882-0.834  l-0.493-0.493l3.944-3.943l-1.114-1.112L26.622,48l-0.493-0.492l-0.833,1.883L24.462,51.272z M54.684,37.808l-1.92-0.742v0.697  h-5.575l-0.002,1.575h5.577v0.696l1.92-0.741l1.921-0.742L54.684,37.808z M36.972,20.887l-0.742,1.92h0.697l0,5.576l1.574,0v-5.577  h0.697l-0.743-1.92l-0.741-1.921L36.972,20.887z M37.714,56.792l0.741-1.92l0.743-1.921h-0.697v-5.576l-1.574,0.001v5.575H36.23  l0.742,1.921L37.714,56.792z M18.779,38.55l1.921,0.742l1.92,0.741v-0.696h5.577v-1.575H22.62v-0.697l-1.92,0.742L18.779,38.55z"></path></svg>